<svg width="15" height="15" viewBox="0 0 15 15" fill="none" xmlns="http://www.w3.org/2000/svg"><path d="M12 2.59831V9.68493H3V2.59831H12ZM12.375 0.82666H2.625C2.00391 0.82666 1.5 1.42182 1.5 2.1554V10.1278C1.5 10.8614 2.00391 11.4566 2.625 11.4566H12.375C12.9961 11.4566 13.5 10.8614 13.5 10.1278V2.1554C13.5 1.42182 12.9961 0.82666 12.375 0.82666ZM14.7188 12.3424H9.12891C9.05859 12.3424 9 12.4005 8.99063 12.4836C8.93437 12.9044 8.625 13.2282 8.25 13.2282H6.75C6.375 13.2282 6.06562 12.9044 6.00937 12.4836C5.99766 12.4033 5.93906 12.3424 5.87109 12.3424H0.28125C0.126563 12.3424 0 12.4919 0 12.6746V13.6711C0 14.4047 0.503906 14.9999 1.125 14.9999H13.875C14.4961 14.9999 15 14.4047 15 13.6711V12.6746C15 12.4919 14.8734 12.3424 14.7188 12.3424Z" fill="#162668"/></svg>