<svg width="15" height="15" viewBox="0 0 15 15" fill="none" xmlns="http://www.w3.org/2000/svg"><path d="M12.7081 9.09102V13.7379C12.7081 14.1692 12.4294 14.5161 12.083 14.5161H9.06188C8.88999 14.5161 8.74935 14.341 8.74935 14.127V10.4951C8.74935 10.2811 8.60871 10.106 8.43682 10.106H6.56163C6.38974 10.106 6.2491 10.2811 6.2491 10.4951V14.127C6.2491 14.341 6.10846 14.5161 5.93656 14.5161H2.91542C2.56903 14.5161 2.29036 14.1692 2.29036 13.7379V9.09102C2.29036 8.97429 2.33203 8.86403 2.40495 8.78945L7.30129 3.76969C7.41588 3.65295 7.58257 3.65295 7.69977 3.76969L12.5961 8.78945C12.6664 8.86403 12.7081 8.97429 12.7081 9.09102ZM14.8854 7.11619L12.7081 4.88195V0.39075C12.7081 0.176729 12.5675 0.00162142 12.3956 0.00162142H10.9371C10.7652 0.00162142 10.6245 0.176729 10.6245 0.39075V2.74498L8.29358 0.35508C7.83259 -0.11836 7.16586 -0.11836 6.70487 0.35508L0.113051 7.11619C-0.0197752 7.25239 -0.0380063 7.49884 0.0713799 7.66422L0.73551 8.66947C0.844897 8.83485 1.04283 8.85755 1.17566 8.72135L7.30129 2.44016C7.41588 2.32342 7.58257 2.32342 7.69977 2.44016L13.8254 8.72135C13.9582 8.85755 14.1562 8.83485 14.2655 8.66947L14.9297 7.66422C15.0391 7.4956 15.0182 7.25239 14.8854 7.11619Z" fill="#162668"/></svg>