<svg width="12" height="12" viewBox="0 0 12 12" fill="none" xmlns="http://www.w3.org/2000/svg"><path d="M6 0C8.07108 0 9.75 1.67892 9.75 3.75C9.75 5.82108 8.07108 7.5 6 7.5C3.92892 7.5 2.25 5.82108 2.25 3.75C2.25 1.67892 3.92892 0 6 0ZM10.2957 7.82393L8.6243 7.40609C6.86829 8.66913 4.73981 8.38727 3.3757 7.40609L1.7043 7.82393C0.70268 8.07434 0 8.97429 0 10.0068V10.875C0 11.4963 0.503672 12 1.125 12H10.875C11.4963 12 12 11.4963 12 10.875V10.0068C12 8.97429 11.2973 8.07434 10.2957 7.82393Z" fill="#747474"/></svg>